<svg width="31" height="36" viewBox="0 0 31 36" fill="none" xmlns="http://www.w3.org/2000/svg">
<g clip-path="url(#clip0_682_1517)">
<path d="M24.3571 11.25V9C24.3571 4.03734 20.3838 0 15.5 0C10.6161 0 6.64286 4.03734 6.64286 9V11.25H0V30.375C0 33.4816 2.47841 36 5.53571 36H25.4643C28.5216 36 31 33.4816 31 30.375V11.25H24.3571ZM11.0714 9C11.0714 6.51867 13.0581 4.5 15.5 4.5C17.9419 4.5 19.9286 6.51867 19.9286 9V11.25H11.0714V9ZM22.1429 17.4375C21.2257 17.4375 20.4821 16.682 20.4821 15.75C20.4821 14.818 21.2257 14.0625 22.1429 14.0625C23.0601 14.0625 23.8036 14.818 23.8036 15.75C23.8036 16.682 23.0601 17.4375 22.1429 17.4375ZM8.85714 17.4375C7.93994 17.4375 7.19643 16.682 7.19643 15.75C7.19643 14.818 7.93994 14.0625 8.85714 14.0625C9.77434 14.0625 10.5179 14.818 10.5179 15.75C10.5179 16.682 9.77434 17.4375 8.85714 17.4375Z" fill="#333333"/>
</g>
<defs>
<clipPath id="clip0_682_1517">
<rect width="31" height="36" fill="white"/>
</clipPath>
</defs>
</svg>
