<svg width="73" height="53" viewBox="0 0 73 53" fill="none" xmlns="http://www.w3.org/2000/svg">
<path d="M10.896 16.928C11.184 16.928 14.64 16.928 14.544 16.928C14.544 16.928 14.544 14.096 14.544 13.088C14.544 9.152 12.24 7.616 8.16 7.616C3.888 7.616 1.824 10.352 1.824 13.04C1.824 14.48 1.824 12.272 1.824 16.688C1.824 21.536 2.64 21.872 3.408 23.024C4.992 25.376 10.944 31.088 10.944 33.248C10.944 34.448 10.944 37.616 10.944 38.816C10.944 42.176 10.032 42.656 8.208 42.656C6.576 42.656 5.472 42.224 5.472 38.816C5.472 37.232 5.472 35.168 5.472 33.296H1.872C1.872 33.296 1.872 37.568 1.872 38.912C1.872 42.56 4.56 44.432 8.208 44.432C11.856 44.432 14.544 43.28 14.544 38.672C14.544 31.328 14.976 31.568 10.608 26.384C8.544 23.888 7.44 22.448 5.856 20.432C5.664 20.192 5.424 19.472 5.424 17.792C5.424 15.872 5.424 13.904 5.424 13.088C5.424 10.496 6.144 9.344 8.112 9.344C10.176 9.344 10.896 10.352 10.896 13.088C10.896 15.44 10.896 16.688 10.896 16.928Z" fill="#333333"/>
<path d="M30.2805 11.888C29.5125 9.344 27.3525 7.664 24.4725 7.664C21.4965 7.664 19.3845 9.344 18.6165 11.888C18.1845 13.232 18.1365 17.504 18.1365 20.096C18.1365 36.224 18.1365 36.992 18.1365 37.712C18.1365 39.296 18.1845 40.688 18.6165 41.552C19.6245 43.52 21.7365 44.528 24.4245 44.528C27.1605 44.528 29.2725 43.52 30.2805 41.552C30.7125 40.688 30.7605 39.296 30.7605 37.712C30.7605 36.992 30.7605 36.224 30.7605 20.096C30.7605 17.504 30.7125 13.232 30.2805 11.888ZM21.7365 13.616C21.7365 11.12 21.9765 9.392 24.4245 9.392H24.4725C26.9205 9.392 27.1605 11.168 27.1605 13.76C27.1605 14.384 27.1605 15.104 27.1605 35.744C27.1605 41.024 27.2085 42.8 24.4725 42.8H24.4245C21.9765 42.8 21.6885 41.024 21.6885 38.528C21.6885 29.984 21.7365 21.776 21.7365 13.616Z" fill="#333333"/>
<path d="M34.593 44.096H38.289V8.096H34.593V44.096Z" fill="#333333"/>
<path d="M51.0176 16.976H54.6656V13.136C54.6656 10.4 52.6016 7.664 48.2336 7.664C45.2576 7.664 42.9536 9.008 42.1856 11.552C41.7536 12.896 41.9456 17.504 41.9456 20.096V35.456C41.9456 37.952 41.9456 40.112 42.5696 41.408C43.5776 43.376 45.4016 44.528 48.3776 44.528C52.6016 44.528 54.6656 41.744 54.6656 39.632V34.304H51.0176V39.536C51.0176 42.128 50.2976 42.8 48.2336 42.8C44.9696 42.8 45.5936 39.632 45.5456 35.744C45.5456 23.264 45.5936 16.64 45.5936 13.136C45.5936 10.592 46.1216 9.392 48.2336 9.392C50.5376 9.392 51.0176 10.688 51.0176 13.136V16.976Z" fill="#333333"/>
<path d="M70.5461 11.888C69.7781 9.344 67.6181 7.664 64.7381 7.664C61.7621 7.664 59.6501 9.344 58.8821 11.888C58.4501 13.232 58.4021 17.504 58.4021 20.096C58.4021 36.224 58.4021 36.992 58.4021 37.712C58.4021 39.296 58.4501 40.688 58.8821 41.552C59.8901 43.52 62.0021 44.528 64.6901 44.528C67.4261 44.528 69.5381 43.52 70.5461 41.552C70.9781 40.688 71.0261 39.296 71.0261 37.712C71.0261 36.992 71.0261 36.224 71.0261 20.096C71.0261 17.504 70.9781 13.232 70.5461 11.888ZM62.0021 13.616C62.0021 11.12 62.2421 9.392 64.6901 9.392H64.7381C67.1861 9.392 67.4261 11.168 67.4261 13.76C67.4261 14.384 67.4261 15.104 67.4261 35.744C67.4261 41.024 67.4741 42.8 64.7381 42.8H64.6901C62.2421 42.8 61.9541 41.024 61.9541 38.528C61.9541 29.984 62.0021 21.776 62.0021 13.616Z" fill="#333333"/>
<path d="M0 49H73V53H0V49Z" fill="#333333"/>
<path d="M0 0H73V4H0V0Z" fill="#333333"/>
</svg>
