<svg width="58" height="58" viewBox="0 0 58 58" fill="none" xmlns="http://www.w3.org/2000/svg">
<path d="M30.7266 39.6489L35.1855 41.8784" stroke="#333333"/>
<path d="M31.4697 47.8248L15.8633 56.7438M15.8633 56.7438L1 48.5681V31.4733M15.8633 56.7438V38.9058M1 31.4733L15.8633 24.0408L29.9834 31.4733L15.8633 38.9058M1 31.4733L15.8633 38.9058M19.5791 25.5273V10.6623M19.5791 10.6623L38.9013 21.811M19.5791 10.6623L28.8686 5.83113L38.1582 1L56.7373 10.6623M56.7373 10.6623L38.9013 21.811M56.7373 10.6623V32.9598M38.9013 21.811V35.1896" stroke="#333333"/>
<path d="M56.9356 32.2166L51.5996 35.1842" stroke="#333333"/>
<path d="M29.9834 5.45947L48.5625 15.865" stroke="#333333"/>
<path d="M35.1855 37.4196L45.5898 32.2168L55.9941 37.4196M35.1855 37.4196V51.5413L45.5898 56.7441M35.1855 37.4196L45.5898 43.3656M45.5898 56.7441V43.3656M45.5898 56.7441L55.9941 51.5413V37.4196M45.5898 43.3656L55.9941 37.4196" stroke="#333333"/>
<path d="M30.7266 31.4731V48.5679" stroke="#333333"/>
</svg>
