<svg width="56" height="56" viewBox="0 0 56 56" fill="none" xmlns="http://www.w3.org/2000/svg">
<g clip-path="url(#clip0_780_3101)">
<path d="M28 56V26.1334M28 28V39.2M28 28C28 24.0395 26.4267 20.2411 23.6262 17.4406C20.8256 14.64 17.0273 13.0667 13.0667 13.0667H1.8667V24.2667C1.8667 28.2273 3.44003 32.0256 6.24057 34.8262C9.04111 37.6267 12.8395 39.2 16.8 39.2H28M28 28L42.9334 13.0667M28 39.2L13.0667 24.2667M28 28H39.2C43.1606 28 46.959 26.4267 49.7595 23.6262C52.56 20.8256 54.1334 17.0273 54.1334 13.0667V1.8667H42.9334C38.9728 1.8667 35.1744 3.44003 32.3739 6.24057C29.5734 9.04111 28 12.8395 28 16.8V28Z" stroke="#333333"/>
</g>
<defs>
<clipPath id="clip0_780_3101">
<rect width="56" height="56" fill="white"/>
</clipPath>
</defs>
</svg>
