<svg width="61" height="61" viewBox="0 0 61 61" fill="none" xmlns="http://www.w3.org/2000/svg">
<path d="M33.0417 22.8748C33.0417 22.8748 35.5833 17.7915 35.5833 12.7082C35.5833 7.62484 30.5 2.5415 30.5 2.5415C30.5 2.5415 25.4167 7.62484 25.4167 12.7082C25.4167 17.7915 27.9583 22.8748 27.9583 22.8748M30.5 38.1248C32.5223 38.1248 34.4617 37.3215 35.8917 35.8915C37.3217 34.4616 38.125 32.5221 38.125 30.4998C38.125 28.4776 37.3217 26.5381 35.8917 25.1081C34.4617 23.6782 32.5223 22.8748 30.5 22.8748C28.4777 22.8748 26.5383 23.6782 25.1083 25.1081C23.6783 26.5381 22.875 28.4776 22.875 30.4998C22.875 32.5221 23.6783 34.4616 25.1083 35.8915C26.5383 37.3215 28.4777 38.1248 30.5 38.1248V38.1248Z" stroke="#333333" stroke-miterlimit="1.5" stroke-linecap="round" stroke-linejoin="round"/>
<path d="M22.8751 27.9584C22.8751 27.9584 17.7917 25.4167 12.7084 25.4167C7.62508 25.4167 2.54175 30.5 2.54175 30.5C2.54175 30.5 7.62508 35.5834 12.7084 35.5834C17.7917 35.5834 22.8751 33.0417 22.8751 33.0417M33.0417 38.125C33.0417 38.125 35.5834 43.2084 35.5834 48.2917C35.5834 53.375 30.5001 58.4584 30.5001 58.4584C30.5001 58.4584 25.4167 53.375 25.4167 48.2917C25.4167 43.2084 27.9584 38.125 27.9584 38.125M38.1251 27.9584C38.1251 27.9584 43.2084 25.4167 48.2917 25.4167C53.3751 25.4167 58.4584 30.5 58.4584 30.5C58.4584 30.5 53.3751 35.5834 48.2917 35.5834C43.2084 35.5834 38.1251 33.0417 38.1251 33.0417M26.9062 23.3122C26.9062 23.3122 25.1092 17.9188 21.5127 14.3249C17.9188 10.731 10.731 10.731 10.731 10.731C10.731 10.731 10.731 17.9188 14.3249 21.5152C17.9188 25.1092 23.3122 26.9061 23.3122 26.9061M23.3122 34.094C23.3122 34.094 17.9188 35.8909 14.3249 39.4874C10.731 43.0813 10.731 50.2691 10.731 50.2691C10.731 50.2691 17.9188 50.2691 21.5127 46.6752C25.1092 43.0813 26.9062 37.6879 26.9062 37.6879M37.6905 34.094C37.6905 34.094 43.0788 35.8909 46.6752 39.4874C50.2692 43.0813 50.2692 50.2691 50.2692 50.2691C50.2692 50.2691 43.0813 50.2691 39.4874 46.6752C35.891 43.0813 34.094 37.6879 34.094 37.6879M34.094 23.3122C34.094 23.3122 35.891 17.9188 39.4874 14.3249C43.0813 10.731 50.2692 10.731 50.2692 10.731C50.2692 10.731 50.2692 17.9188 46.6752 21.5152C43.0813 25.1092 37.6879 26.9061 37.6879 26.9061" stroke="#333333" stroke-miterlimit="1.5" stroke-linecap="round" stroke-linejoin="round"/>
</svg>
